<svg width="24" height="24" viewBox="0 0 24 24" fill="none" xmlns="http://www.w3.org/2000/svg">
<path d="M6 7C6 5.93913 6.42143 4.92172 7.17157 4.17157C7.92172 3.42143 8.93913 3 10 3H14C15.0609 3 16.0783 3.42143 16.8284 4.17157C17.5786 4.92172 18 5.93913 18 7V17C18 18.0609 17.5786 19.0783 16.8284 19.8284C16.0783 20.5786 15.0609 21 14 21H10C8.93913 21 7.92172 20.5786 7.17157 19.8284C6.42143 19.0783 6 18.0609 6 17V7Z" stroke="url(#paint0_linear_2001_982)" stroke-width="1.5" stroke-linecap="round" stroke-linejoin="round"/>
<path d="M12 7V11" stroke="url(#paint1_linear_2001_982)" stroke-width="1.5" stroke-linecap="round" stroke-linejoin="round"/>
<defs>
<linearGradient id="paint0_linear_2001_982" x1="12" y1="3" x2="12" y2="21" gradientUnits="userSpaceOnUse">
<stop stop-color="white"/>
<stop offset="1" stop-color="#999999"/>
</linearGradient>
<linearGradient id="paint1_linear_2001_982" x1="12.5" y1="7" x2="12.5" y2="11" gradientUnits="userSpaceOnUse">
<stop stop-color="white"/>
<stop offset="1" stop-color="#999999"/>
</linearGradient>
</defs>
</svg>
