<svg width="24" height="24" viewBox="0 0 24 24" fill="none" xmlns="http://www.w3.org/2000/svg">
<path d="M6.7044 19.2783C5.55603 18.4439 4.62164 17.3493 3.97775 16.0842C3.33387 14.8191 2.99881 13.4195 3 12C3 7.0293 7.0293 3 12 3C16.9707 3 21 7.0293 21 12C21.0012 13.4195 20.6661 14.8191 20.0223 16.0842C19.3784 17.3493 18.444 18.4439 17.2956 19.2783L16.3821 17.7132C17.5759 16.7975 18.4528 15.5309 18.8897 14.0912C19.3266 12.6516 19.3016 11.1112 18.8181 9.68652C18.3346 8.26183 17.417 7.02438 16.1941 6.14799C14.9712 5.2716 13.5045 4.8003 12 4.8003C10.4955 4.8003 9.0288 5.2716 7.80591 6.14799C6.58302 7.02438 5.66539 8.26183 5.18191 9.68652C4.69842 11.1112 4.67338 12.6516 5.1103 14.0912C5.54722 15.5309 6.42415 16.7975 7.6179 17.7132L6.7044 19.2783V19.2783ZM8.535 16.1418C7.68453 15.4303 7.07371 14.4742 6.78554 13.4034C6.49737 12.3327 6.54582 11.1992 6.92431 10.1569C7.3028 9.11463 7.99298 8.21415 8.90107 7.5778C9.80917 6.94145 10.8911 6.60009 12 6.60009C13.1089 6.60009 14.1908 6.94145 15.0989 7.5778C16.007 8.21415 16.6972 9.11463 17.0757 10.1569C17.4542 11.1992 17.5026 12.3327 17.2145 13.4034C16.9263 14.4742 16.3155 15.4303 15.465 16.1418L14.538 14.5524C15.0436 14.0498 15.3886 13.4084 15.5293 12.7095C15.6699 12.0105 15.5999 11.2856 15.328 10.6265C15.0562 9.96748 14.5948 9.40397 14.0023 9.00745C13.4098 8.61093 12.7129 8.39925 12 8.39925C11.2871 8.39925 10.5902 8.61093 9.99772 9.00745C9.40524 9.40397 8.94384 9.96748 8.67199 10.6265C8.40015 11.2856 8.33011 12.0105 8.47075 12.7095C8.6114 13.4084 8.95639 14.0498 9.462 14.5524L8.535 16.1418V16.1418ZM11.1 12.9H12.9L13.8 21H10.2L11.1 12.9Z" fill="url(#paint0_linear_2001_993)"/>
<defs>
<linearGradient id="paint0_linear_2001_993" x1="12" y1="3" x2="12" y2="21" gradientUnits="userSpaceOnUse">
<stop stop-color="white"/>
<stop offset="1" stop-color="#999999"/>
</linearGradient>
</defs>
</svg>
