<svg width="24" height="24" viewBox="0 0 24 24" fill="none" xmlns="http://www.w3.org/2000/svg">
<mask id="mask0_2013_331" style="mask-type:luminance" maskUnits="userSpaceOnUse" x="3" y="3" width="18" height="18">
<path d="M21 3H3V21H21V3Z" fill="white"/>
</mask>
<g mask="url(#mask0_2013_331)">
<path d="M20.9643 4.8945C20.9502 4.82807 20.9185 4.76664 20.8726 4.71659C20.8267 4.66653 20.7682 4.62969 20.7033 4.60988C20.4667 4.56272 20.2219 4.58021 19.9945 4.6605C19.9945 4.6605 4.22316 10.3282 3.32203 10.956C3.12853 11.0922 3.06328 11.1697 3.03066 11.262C2.87541 11.712 3.36028 11.9067 3.36028 11.9067L7.42491 13.2307C7.49353 13.2432 7.56412 13.2388 7.63078 13.2184C8.55553 12.6345 16.9345 7.34363 17.4183 7.16588C17.4948 7.14338 17.551 7.16588 17.5308 7.221C17.3373 7.896 10.099 14.3299 10.0596 14.3692C10.0404 14.3853 10.0254 14.4058 10.0158 14.4289C10.0062 14.452 10.0023 14.4771 10.0045 14.502L9.62535 18.471C9.62535 18.471 9.4656 19.7085 10.7008 18.471C11.5773 17.5947 12.4188 16.8679 12.8383 16.5157C14.2356 17.481 15.7398 18.5475 16.3888 19.1032C16.4976 19.2091 16.6266 19.2919 16.768 19.3467C16.9096 19.4013 17.0607 19.4268 17.2123 19.4217C17.3991 19.3986 17.5744 19.3192 17.715 19.1943C17.8557 19.0693 17.955 18.9046 17.9998 18.7219C17.9998 18.7219 20.881 7.1625 20.9766 5.60663C20.9856 5.45475 21.0003 5.3625 21.0003 5.25C21.0043 5.13042 20.9923 5.01083 20.9643 4.8945Z" fill="black"/>
</g>
</svg>
