<svg width="24" height="24" viewBox="0 0 24 24" fill="none" xmlns="http://www.w3.org/2000/svg">
<path d="M20.6155 6.61538C19.9694 6.93846 19.3232 7.04615 18.5694 7.15385C19.3232 6.72308 19.8617 6.07692 20.0771 5.21538C19.4309 5.64615 18.6771 5.86154 17.8155 6.07692C17.1694 5.43077 16.2002 5 15.2309 5C13.4002 5 11.7848 6.61539 11.7848 8.55385C11.7848 8.87692 11.7848 9.09231 11.8925 9.30769C8.98477 9.2 6.29246 7.8 4.56938 5.64615C4.2463 6.18462 4.13861 6.72308 4.13861 7.47692C4.13861 8.66154 4.78477 9.73846 5.754 10.3846C5.21554 10.3846 4.67707 10.1692 4.13861 9.95385C4.13861 11.6769 5.32323 13.0769 6.93861 13.4C6.61554 13.5077 6.29246 13.5077 5.96938 13.5077C5.754 13.5077 5.53861 13.5077 5.32323 13.4C5.754 14.8 7.0463 15.8769 8.66169 15.8769C7.47707 16.8462 5.96938 17.3846 4.2463 17.3846C3.92323 17.3846 3.70784 17.3846 3.38477 17.3846C5.00015 18.3538 6.83092 19 8.76938 19C15.2309 19 18.7848 13.6154 18.7848 8.98461C18.7848 8.87692 18.7848 8.66154 18.7848 8.55385C19.5386 8.01539 20.1848 7.36923 20.6155 6.61538Z" fill="black"/>
</svg>
