<svg width="114" height="30" viewBox="0 0 114 30" fill="none" xmlns="http://www.w3.org/2000/svg">
<path d="M11.8885 5.86319C10.32 5.92655 8.79408 6.39187 7.45717 7.21454C6.12026 8.0372 5.01718 9.1896 4.25372 10.5612H19.439L24.1376 5.86319H11.8885ZM0.296875 12.6507L4.99547 17.3487H24.1376L19.439 12.6507H0.296875ZM4.99547 19.4382L0.296875 24.1362H12.5632C14.1325 24.0737 15.6594 23.6087 16.9972 22.786C18.335 21.9633 19.4388 20.8105 20.2027 19.4382H4.99547Z" fill="#F9A618"/>
<path d="M12.2178 2.78192C9.77531 2.78805 7.39067 3.52612 5.37176 4.90085C3.35286 6.27558 1.79234 8.22388 0.891626 10.4943H2.41357C3.27433 8.61585 4.65515 7.02331 6.39263 5.90506C8.13011 4.78681 10.1516 4.18965 12.2178 4.18423C13.9518 4.18656 15.6597 4.60574 17.1978 5.40645C18.7358 6.20717 20.0588 7.36594 21.0551 8.78507L22.0469 7.79333C20.9164 6.24561 19.4377 4.98555 17.7302 4.11499C16.0227 3.24442 14.1344 2.78776 12.2178 2.78192ZM23.2454 9.76556L22.1926 10.8177H22.1565C22.7242 12.1395 23.0225 13.5612 23.0339 14.9997C23.0331 15.7899 22.9456 16.5776 22.7732 17.3487H24.1791C24.3403 16.5758 24.4262 15.7892 24.4356 14.9997C24.4318 13.1883 24.0252 11.4005 23.2454 9.76556ZM0.257114 12.6501C0.0956731 13.4232 0.0095703 14.21 0 14.9997C0.00401638 16.8111 0.410761 18.599 1.19079 20.2339L2.24357 19.1817H2.27908C1.71162 17.8599 1.41355 16.4381 1.40229 14.9997C1.41317 14.2082 1.51091 13.4203 1.69376 12.6501H0.257114ZM22.0481 19.5052C21.1855 21.3877 19.8007 22.9831 18.0581 24.1017C16.3156 25.2204 14.2885 25.8153 12.2178 25.8158C10.4838 25.8134 8.77572 25.3941 7.23769 24.5933C5.69966 23.7925 4.37675 22.6336 3.38045 21.2144L2.38929 22.2055C3.51963 23.7532 4.99824 25.0134 6.70562 25.884C8.41299 26.7547 10.3013 27.2115 12.2178 27.2175C14.6604 27.2115 17.0451 26.4735 19.0641 25.0987C21.0832 23.724 22.6438 21.7756 23.5446 19.5052H22.0481Z" fill="#F9A618"/>
<path d="M12.2168 4.18422V0L18.9776 4.84774L12.937 3.45855L12.2168 4.18422Z" fill="#F9A618"/>
<path d="M12.2159 25.8158V30L5.45508 25.1523L11.4956 26.5415L12.2159 25.8158Z" fill="#F9A618"/>
<path d="M32.6345 10.1987H43.2896V12.1554H35.4852V14.2631H41.9051C42.2207 14.2631 42.5158 14.3401 42.7967 14.4984C42.967 14.5925 43.0904 14.6954 43.1707 14.8056C43.251 14.9157 43.2895 15.0322 43.2895 15.1622V18.9022C43.2895 19.0322 43.251 19.1487 43.1707 19.2588C43.0905 19.369 42.9676 19.4716 42.7967 19.566C42.5164 19.724 42.2207 19.8013 41.9051 19.8013H32.6716L31.3168 17.8421H39.0543V15.7368H32.6345C32.3244 15.7368 32.0309 15.6598 31.7502 15.5015C31.577 15.4047 31.4504 15.2998 31.3688 15.1895C31.2873 15.0791 31.25 14.9647 31.25 14.8378V11.0978C31.25 10.9709 31.2873 10.8565 31.3688 10.7461C31.4503 10.6357 31.5768 10.531 31.7502 10.434C32.0307 10.276 32.3244 10.1987 32.6345 10.1987ZM96.35 10.1987H101.14L107.144 19.8013H97.6007V17.8421H101.227L98.745 13.8842L95.0447 19.8013H90.3636L96.35 10.1987ZM109.034 10.1987H113.269V19.8013H109.034V10.1987ZM46.6605 12.6359H54.9553C55.2709 12.6359 55.5661 12.7129 55.847 12.8712C56.0173 12.9652 56.1406 13.0682 56.221 13.1783C56.3012 13.2885 56.3398 13.4049 56.3398 13.535V18.9022C56.3398 19.0322 56.3012 19.1487 56.221 19.2588C56.1407 19.369 56.0178 19.4716 55.847 19.566C55.5667 19.724 55.2709 19.8013 54.9553 19.8013H46.6605C46.3505 19.8013 46.057 19.7242 45.7763 19.566C45.6031 19.4692 45.4764 19.3643 45.3949 19.2539C45.3134 19.1435 45.276 19.0291 45.276 18.9022V13.535C45.276 13.4081 45.3134 13.2936 45.3949 13.1833C45.4764 13.0729 45.6029 12.9681 45.7763 12.8712C46.0568 12.7131 46.3505 12.6359 46.6605 12.6359ZM59.8891 12.6359H68.2854L66.9232 14.6025H62.7399V19.8013H58.5046V13.535C58.5046 13.4081 58.5419 13.2936 58.6234 13.1833C58.7049 13.0729 58.8313 12.9681 59.0048 12.8712C59.2852 12.7131 59.579 12.6359 59.8891 12.6359ZM69.7492 12.6359H79.4285C79.7441 12.6359 80.0393 12.7129 80.3202 12.8712C80.4905 12.9652 80.6138 13.0682 80.6942 13.1783C80.7744 13.2885 80.813 13.4049 80.813 13.535V19.8013H71.1337C70.8236 19.8013 70.5301 19.7242 70.2494 19.566C70.0762 19.4692 69.9496 19.3643 69.868 19.2539C69.7865 19.1435 69.7492 19.0291 69.7492 18.9022V16.465C69.7492 16.3381 69.7865 16.2237 69.868 16.1133C69.9495 16.0029 70.076 15.8982 70.2494 15.8012C70.5302 15.643 70.824 15.5635 71.1337 15.5635H76.5752V14.6025H69.7491L69.7492 12.6359ZM49.5138 14.6025V17.8421H52.102V14.6025H49.5138ZM73.9845 17.0396V17.8421H76.5752V17.0396H73.9845ZM84.3449 17.8421H87.3666V19.8013H84.3449V17.8421Z" fill="white"/>
</svg>
