<svg width="128" height="128" viewBox="0 0 128 128" fill="none" xmlns="http://www.w3.org/2000/svg">
<path d="M62.7231 25.0163C56.031 25.2866 49.5204 27.272 43.8162 30.782C38.1121 34.2921 33.4056 39.209 30.1482 45.0611H94.9387L114.986 25.0163H62.7231ZM13.2656 53.9764L33.313 74.0212H114.986L94.9387 53.9764H13.2656ZM33.313 82.9365L13.2656 102.981H65.602C72.2976 102.714 78.8123 100.731 84.5202 97.2204C90.2282 93.7102 94.9379 88.7915 98.1971 82.9365H33.313Z" fill="black"/>
<path d="M64.1293 11.8695C53.708 11.8957 43.5335 15.0448 34.9195 20.9103C26.3055 26.7758 19.6473 35.0886 15.8043 44.7755H22.2979C25.9705 36.761 31.862 29.9661 39.2752 25.1949C46.6885 20.4237 55.3134 17.8758 64.1293 17.8527C71.5276 17.8626 78.8149 19.6512 85.3771 23.0675C91.9394 26.4839 97.5841 31.428 101.835 37.483L106.067 33.2515C101.243 26.6479 94.9341 21.2717 87.6488 17.5573C80.3635 13.8429 72.3068 11.8945 64.1293 11.8695ZM111.18 41.6664L106.689 46.1556H106.534C108.956 51.7952 110.229 57.8612 110.278 63.9987C110.274 67.3701 109.901 70.7311 109.166 74.0212H115.164C115.852 70.7236 116.218 67.3671 116.259 63.9987C116.242 56.2702 114.507 48.642 111.18 41.6664ZM13.097 53.9738C12.4082 57.2721 12.0408 60.6295 12 63.9987C12.0171 71.7275 13.7526 79.3557 17.0807 86.3312L21.5726 81.8419H21.7241C19.3029 76.2022 18.0311 70.1361 17.9831 63.9987C18.0295 60.6216 18.4465 57.2599 19.2267 53.9738H13.097ZM106.072 83.2221C102.392 91.2542 96.483 98.0611 89.0481 102.834C81.6132 107.607 72.9644 110.145 64.1293 110.147C56.7308 110.137 49.4431 108.348 42.8808 104.931C36.3186 101.515 30.6741 96.57 26.4232 90.5146L22.1943 94.7434C27.0171 101.347 33.3258 106.724 40.6106 110.439C47.8954 114.153 55.9521 116.102 64.1293 116.128C74.5511 116.102 84.7259 112.954 93.3404 107.088C101.955 101.222 108.614 92.9094 112.457 83.2221H106.072Z" fill="black"/>
<path d="M64.125 17.8527V0L92.9709 20.6837L67.198 14.7565L64.125 17.8527Z" fill="black"/>
<path d="M64.1196 110.147V128L35.2734 107.316L61.0464 113.243L64.1196 110.147Z" fill="black"/>
</svg>
